<svg xmlns="http://www.w3.org/2000/svg" width="1900" height="420" viewBox="0 0 1900 420">
  <defs>
    <style>
      .cls-1 {
        fill: #fff;
        fill-rule: evenodd;
      }
    </style>
  </defs>
  <path id="fib_mask_1" data-name="fib_mask 1" class="cls-1" d="M2018-1V377H273.171l-29.009-2.016-20.685-2.268c-3.943-.922-8.228-0.753-12.36-1.764-9.286-2.272-19.237-3.317-28-5.8-11.015-3.117-21.546-4.966-31.531-9.072-14.267-5.866-28.234-11.62-40.613-19.4-30.57-19.224-53.63-44.3-72.9-74.844a267.861,267.861,0,0,1-27.748-59.22C8.142,196.041,7.037,189.04,5.279,182.2l-0.757-5.8C2.588,168.533,2,159.044,2,149.7V138.608L3.261,123.74c2.456-10.479,3.147-20.766,6.306-30.24,4.8-14.39,10.725-27.743,18.667-39.06,2.813-4.008,6.127-7.684,9.081-11.592l2.523-2.268a47.563,47.563,0,0,1,9.333-9.072c1.082-.816,1.933-2.207,3.027-3.024,5.651-4.223,11.364-8.543,17.405-12.348,2.22-1.4,4.546-2.153,6.811-3.528,7.292-4.427,15.291-7.384,23.712-10.836A68.394,68.394,0,0,1,106.937-1H2018Z"/>
</svg>
