<?xml version="1.0" ?><svg enable-background="new 0 0 48 48" height="48px" id="Layer_1" version="1.1" viewBox="0 0 48 48" width="48px" xml:space="preserve" xmlns="http://www.w3.org/2000/svg" xmlns:xlink="http://www.w3.org/1999/xlink"><path d="M15.34,45.5C8.26,45.5,2.5,39.74,2.5,32.66s5.76-12.84,12.84-12.84h1.31v8.37l-1.31,0c-2.47,0-4.47,2.01-4.47,4.47  c0,2.47,2.01,4.48,4.47,4.48c2.47,0,4.47-2.01,4.47-4.48l0-1.92v-15.4c0-7.08,5.76-12.84,12.84-12.84c7.08,0,12.84,5.76,12.84,12.84  s-5.76,12.84-12.84,12.84h-1.31v-8.37l1.31,0c2.47,0,4.47-2.01,4.47-4.47c0-2.47-2.01-4.47-4.47-4.47c-2.47,0-4.47,2.01-4.47,4.47  l0,1.92v15.4C28.18,39.74,22.42,45.5,15.34,45.5z"/></svg>