<svg xmlns="http://www.w3.org/2000/svg" width="128" height="128" viewBox="0 0 128 128"> <defs> <style> .cls-1 { fill: #fff; fill-rule: evenodd; } </style> </defs> <path id="pyramid_1" data-name="pyramid 1" class="cls-1" d="M66.513,111.15h51.061v-0.065a10.307,10.307,0,0,1-.9-1.58c-0.745-1.219-1.4-2.506-2.153-3.74-1.159-1.9-2.177-3.89-3.342-5.8-0.375-.617-0.707-1.271-1.092-1.9a4.46,4.46,0,0,1-.514-0.871H79.623V92.482h27.218V92.418a5.777,5.777,0,0,1-.707-1.225c-0.621-1.02-1.17-2.094-1.8-3.127-2-3.289-3.8-6.743-5.817-10.027-0.632-1.032-1.177-2.11-1.8-3.127-0.173-.282-0.318-0.57-0.482-0.838a1.213,1.213,0,0,0-.193-0.387H79.623V69.107H93.377V69.043l-9.865-17.12H44.468a16.3,16.3,0,0,1-.932,1.58c-0.709,1.159-1.323,2.37-2.025,3.514-0.3.489-.5,0.993-0.8,1.483-0.955,1.562-1.839,3.21-2.8,4.772-0.254.415-.421,0.841-0.675,1.257-0.622,1.019-1.168,2.094-1.8,3.127a6.968,6.968,0,0,0-.835,1.451h13.85v4.546a6.146,6.146,0,0,1-1.575.032H31.936l-10.8,18.8H48.453v4.675a3.542,3.542,0,0,1-.9.032H18.407a5.062,5.062,0,0,1-.643,1.1c-0.511.831-.946,1.7-1.446,2.515-1.212,1.982-2.264,4.061-3.47,6.029-0.254.416-.421,0.842-0.675,1.258-0.409.67-.772,1.378-1.189,2.063a4.456,4.456,0,0,0-.578,1H54.3a3.7,3.7,0,0,0,.514.129,2.746,2.746,0,0,1,1.221,1.064,2.509,2.509,0,0,1-1.414,3.578,4.675,4.675,0,0,1-1.253.065H8.51c-2.026,0-3.308.2-4.145-1.064a2.681,2.681,0,0,1-.193-2.289,10,10,0,0,1,.739-1.225c0.577-.942,1.074-1.905,1.607-2.87,0.781-1.415,1.631-2.847,2.474-4.223,0.3-.49.5-0.994,0.8-1.484,0.786-1.287,1.526-2.647,2.314-3.933,0.3-.489.5-0.994,0.8-1.483,1.2-1.971,2.261-4.042,3.47-6.029,3.209-5.269,6.065-10.8,9.287-16.056,0.969-1.582,1.8-3.237,2.764-4.8,0.255-.416.421-0.842,0.675-1.257,1-1.636,1.922-3.362,2.924-5,0.423-.69.735-1.4,1.157-2.1,1.291-2.112,2.467-4.338,3.76-6.448,0.468-.764.818-1.557,1.285-2.321,1.581-2.588,3.011-5.313,4.6-7.9,0.591-.965,1.049-1.969,1.639-2.934,2.254-3.688,4.266-7.567,6.523-11.252,0.591-.965,1.049-1.968,1.639-2.934,2.422-3.963,4.586-8.126,7.005-12.09,0.63-1.033,1.178-2.108,1.8-3.127,0.632-1.038.836-1.807,2.217-2.128a2.291,2.291,0,0,1,1.671.387,4.076,4.076,0,0,1,1.061,1.451c0.575,0.946,1.087,1.942,1.671,2.9,2.627,4.317,4.976,8.846,7.616,13.155,0.714,1.165,1.28,2.381,1.992,3.547,2.254,3.688,4.266,7.567,6.523,11.252,0.591,0.964,1.049,1.969,1.639,2.934C87.575,49.53,89.15,52.543,90.9,55.4c0.423,0.69.735,1.4,1.157,2.1,1.291,2.112,2.467,4.338,3.76,6.448,0.3,0.489.5,0.994,0.8,1.483,0.954,1.562,1.839,3.211,2.8,4.772,0.3,0.489.5,0.994,0.8,1.483,0.786,1.287,1.525,2.647,2.313,3.933,0.3,0.489.5,0.994,0.8,1.483,3.507,5.739,6.617,11.766,10.122,17.507,0.712,1.167,1.279,2.38,1.992,3.547,2.254,3.688,4.274,7.562,6.524,11.253,0.376,0.616.652,1.253,1.028,1.87a8.019,8.019,0,0,1,.9,1.612,2.6,2.6,0,0,1-.29,2.031c-0.809,1.221-2.095,1.064-4.081,1.064H66.255c-1.591,0-3.132.18-3.824-.742-0.772-1.028-.611-2.206-0.61-3.965V72.654H61.789v0.032a5.7,5.7,0,0,0-.578.87c-0.439.662-.887,1.337-1.35,2-1.033,1.479-2.05,3-3.085,4.482-0.417.6-.756,1.227-1.189,1.805a2.441,2.441,0,0,1-3.374.226,2.394,2.394,0,0,1-.707-2.354,4.623,4.623,0,0,1,.771-1.322c0.281-.4.5-0.817,0.771-1.225,1.023-1.541,2.088-3.1,3.149-4.611,1.369-1.954,2.623-3.987,3.985-5.932,0.566-.808,1.1-1.639,1.639-2.45a3.152,3.152,0,0,1,1.317-1.386c2.3-.969,3.313,1.343,4.113,2.547C69.8,69.173,72.441,72.977,75,76.813c0.364,0.546.683,1.1,1.06,1.644a5.274,5.274,0,0,1,.611.9,2.64,2.64,0,0,1-.289,2.386A2.369,2.369,0,0,1,73,82.133,4.281,4.281,0,0,1,72.168,81c-0.433-.653-0.877-1.3-1.317-1.967-0.694-1.046-1.434-2.1-2.153-3.127-0.325-.464-0.575-0.954-0.9-1.419a16.344,16.344,0,0,1-1.253-1.838H66.513v38.5ZM63.974,18a9.455,9.455,0,0,1-.643,1.1c-0.418.684-.779,1.395-1.189,2.064-0.97,1.581-1.8,3.237-2.764,4.8-0.591.964-1.049,1.969-1.639,2.934-1.75,2.863-3.324,5.876-5.077,8.737-0.377.616-.653,1.253-1.028,1.87-1.034,1.7-1.947,3.48-2.989,5.191-0.331.544-.625,1.119-0.964,1.677a3.548,3.548,0,0,0-.482.838H80.78V47.151a3.6,3.6,0,0,1-.321-0.58c-0.286-.468-0.54-0.968-0.835-1.451-0.914-1.494-1.713-3.069-2.635-4.578-3-4.915-5.668-10.08-8.676-14.992-1.09-1.78-2.035-3.648-3.117-5.416-0.3-.483-0.549-0.983-0.835-1.451A2.463,2.463,0,0,0,63.974,18Z"/> </svg>