<?xml version="1.0" encoding="utf-8"?>
<!-- Generator: Adobe Illustrator 23.0.1, SVG Export Plug-In . SVG Version: 6.00 Build 0)  -->
<svg version="1.1" id="Layer_1" xmlns="http://www.w3.org/2000/svg" xmlns:xlink="http://www.w3.org/1999/xlink" x="0px" y="0px"
	 viewBox="0 0 3600 1884" style="enable-background:new 0 0 3600 1884;" xml:space="preserve">
<style type="text/css">
* {
	opacity: 0.95;
}
	.st0{clip-path:url(#SVGID_2_);fill:none;stroke:#F0F0F0;stroke-width:3;stroke-miterlimit:10;}
	.st1{fill:#92959f;}
	.st2{fill:#a9c471;}
	.st3{fill:#e3922f;}
	.st4{fill:#2D334A;}
	.st5{fill:#E0E0E0;}
	.st6{fill:#d7dbc5;}
	.st7{fill:#47301f;}
	.st8{fill:#FFFFFF;}
	.st9{fill:#898989;}
	.st10{fill:#DEDEDE;}
	.st11{fill:none;stroke:#FFFFFF;stroke-width:4;stroke-linecap:round;stroke-linejoin:round;stroke-miterlimit:10;}
	.st12{fill:#47301f;}
</style>
<g>
	<g>
		<defs>
			<rect id="SVGID_1_" width="3600" height="1884"/>
		</defs>
		<use xlink:href="#SVGID_1_"  style="overflow:visible;fill:transparent;"/>
		<clipPath id="SVGID_2_">
			<use xlink:href="#SVGID_1_"  style="overflow:visible;"/>
		</clipPath>
	</g>
	<path class="st1" d="M3374.1,1351.5c0,83.92-13.64,164.64-38.81,240.09c-37.09,111.15-99.21,210.85-179.68,292.41H282.69
		c-41.49-69.39-65.34-150.54-65.34-237.27c0-18.66,1.13-37.06,3.28-55.14c22.67-191.03,161.62-346.41,344.11-393.31
		c-2.39-11.76-3.65-23.93-3.65-36.4c0-100.37,81.36-181.73,181.73-181.73c12.84,0,25.36,1.35,37.45,3.88
		c47.72-212.42,168.69-397.13,335.01-526.2c156.11-121.16,352.18-193.29,565.11-193.29c296.49,0,560.28,139.89,729.06,357.21
		c24.61-6.93,49.72-12.67,75.27-17.12c42.61-7.44,86.44-11.32,131.19-11.32C3034.65,593.31,3374.1,932.76,3374.1,1351.5z"/>
	<g>
		<path class="st2" d="M2906.37,1542.42c73.33,0,135.17,49.18,154.34,116.36h-308.69C2771.2,1591.6,2833.04,1542.42,2906.37,1542.42
			z"/>
		<path class="st2" d="M2154.07,1487.37c108.02,0,199.12,72.45,227.36,171.4h-454.72
			C1954.95,1559.82,2046.05,1487.37,2154.07,1487.37z"/>
		<path class="st2" d="M2859.67,1658.78c-34.86-120.64-173.02-210.74-338.16-210.74c-165.14,0-303.3,90.11-338.16,210.74H2859.67z"
			/>
	</g>
	<g>
		<path class="st3" d="M1562.77,912.62c53.12-88.5-27.81-124.05-29.61-125.97c-21.13-22.59-80.59-11.69-105.99,16.19l-534.61,651.24
			c-9.61,9.62-0.1,63.99,9.19,73.93c3.11,3.32,6.91,5.6,10.98,6.85c28.23,14.91,78.04-27.27,103.11-48.14
			C1138.92,1384.24,1493.7,1027.71,1562.77,912.62z"/>
		<path class="st3" d="M1607.87,955.12c-67.89-77.76,5.51-127.01,6.95-129.22c16.81-25.96,77.26-25.71,107.18-2.74L2363,1370
			c11.16,7.78,11.38,62.97,3.98,74.39c-2.47,3.82-5.82,6.73-9.6,8.68c-25.16,19.65-81.62-13.09-109.98-29.22
			C2108.19,1344.67,1696.14,1056.23,1607.87,955.12z"/>
		<g>
			<path class="st3" d="M1848.26,1671.39c-4.49-18.1-8.8-35.72-12.85-53.01c-6.68-28.66-12.77-56.33-18.25-82.7
				c-3.7-18.89-7.31-37.01-10.62-54.74c-2.26-12.49-4.39-24.68-6.37-36.61c-32.3-194.41-26.04-319.91-3.14-405.84
				c20.92-78.17-1.07-161.35-59.33-217.32l-22.76-21.91c-105.44-101.66-281.51-57.33-325.34,82.53
				c-14.6,46.84-27.88,100.64-37.99,162.02c-17.3,105.04-28.14,214.29-29.29,330.12c-0.25,17.74-0.09,35.48,0.15,53.57
				c0.59,41.84,2.49,84.54,5.72,128.31c1.33,17.69,2.81,35.63,4.51,53.59c2.84,29.01,6.29,58.33,10.43,88.2h511.77
				C1852.63,1688.77,1850.41,1680.03,1848.26,1671.39z"/>
		</g>
		<g>
			<path class="st4" d="M1847.13,442.37c-0.76-13.29-10.39-25.22-13.12-37.84c-2.8-12.95,0.98-27.79-3.72-39.88
				c-4.79-12.3-17.64-20.67-24.21-31.9c-6.64-11.36-7.65-26.65-15.92-36.75c-8.31-10.15-23.12-14.15-32.88-22.86
				c-9.77-8.71-15.43-22.96-26.46-30.07c-10.98-7.07-26.28-6.33-38.32-11.63c-11.91-5.25-21.69-17.06-34.45-20.42
				c-12.54-3.29-26.85,2.16-40.04,0.85c-12.85-1.27-25.79-9.48-39.09-8.72s-25.22,10.39-37.84,13.12
				c-12.95,2.8-27.79-0.98-39.88,3.72c-12.3,4.79-20.67,17.64-31.9,24.21c-11.36,6.64-26.65,7.65-36.75,15.92
				c-10.15,8.31-14.15,23.12-22.86,32.88c-8.71,9.77-22.96,15.43-30.07,26.46c-7.07,10.98-6.33,26.28-11.63,38.32
				c-5.25,11.91-17.06,21.69-20.42,34.45c-3.29,12.54,2.16,26.85,0.85,40.04c-1.27,12.85-9.48,25.79-8.72,39.09
				c0.76,13.29,10.39,25.22,13.12,37.84c2.8,12.95-0.98,27.79,3.72,39.88c4.79,12.3,17.64,20.67,24.21,31.9
				c6.64,11.36,7.65,26.65,15.92,36.75c8.31,10.15,23.12,14.15,32.88,22.86c9.77,8.71,15.43,22.96,26.46,30.07
				c10.98,7.07,26.28,6.33,38.32,11.63c11.91,5.25,21.69,17.06,34.45,20.42c12.54,3.29,26.85-2.16,40.04-0.85
				c12.85,1.27,25.79,9.48,39.09,8.72c13.29-0.76,25.22-10.39,37.84-13.12c12.95-2.8,27.79,0.98,39.88-3.72
				c12.3-4.79,20.67-17.64,31.9-24.21c11.36-6.64,26.65-7.65,36.75-15.92c10.15-8.31,14.15-23.12,22.86-32.88
				c8.71-9.77,22.96-15.43,30.07-26.46c7.07-10.98,6.33-26.28,11.63-38.32c5.25-11.91,17.06-21.69,20.42-34.45
				c3.29-12.54-2.16-26.85-0.85-40.04C1839.68,468.62,1847.88,455.67,1847.13,442.37z"/>
			<path class="st4" d="M1800.71,708.37c0,0,20.27-54.87-4.95-103.23c-25.23-48.36-42.14,7.3-42.14,7.3L1800.71,708.37z"/>
			<path class="st4" d="M1459.88,590.86c2.74,5.19,41.97,104,58.84,105.51c23.14,2.06,15.05-74.7,15.05-74.7L1459.88,590.86z"/>
			<path class="st4" d="M1765.54,460.17c0,0,23.19-50.04,3.63-85.33c-18.58-33.53-51.29-69-181.2-41.98
				c-18.54,3.86-31.68,20.44-31.28,39.37l1.14,53.65L1765.54,460.17z"/>
			<path class="st5" d="M1520.69,560.67c12.77,77.32,29.08,140.43,78.64,172.53c17.38,11.27,39.04,20.78,64.46,23.88
				c15.89,1.93,33.23,1.38,51.9-2.83c48.7-10.95,72.36-37.01,81.68-73.99c10.71-42.38,2.63-99.11-8.06-163.91
				c-20.03-121.39-90.36-173.23-164.55-161C1550.62,367.58,1500.66,439.29,1520.69,560.67z"/>
			<path class="st5" d="M1512.19,568.12l128.95-7.97c1.11,17.65,8.59,185.69-0.18,248.61c-5.41,19.28-37.77,27.06-72.28,17.38
				c-31.02-8.71-53.01-28.54-53.25-46.48l-0.15-0.03C1520.55,741.91,1515.99,629.81,1512.19,568.12z"/>
			<path class="st4" d="M1463.42,599.17c0,0,32.7,8.71,58.8-20.21c34.38-38.08,65.17-119.73,72.7-156.75
				c13.25-65.13-5.98-81.93-5.98-81.93s-123.66,12.84-149.13,54.77C1401.71,457.8,1463.42,599.17,1463.42,599.17z"/>
			<path class="st4" d="M1554.52,494.78l29.12,177.14c3.08,18.72,16.97,33.72,35.39,38.23l21.13,5.17
				c13.01,3.18,25.68-6.34,26.25-19.72l1.55-36.57c0.35-8.19,6.06-15.15,14.02-17.1l79.12-19.34c8.45-2.06,17.21,2.08,20.97,9.91
				l15.66,32.64c15.44,32.21-1.24,70.65-35.32,81.35l-47.33,14.88c-10.11,3.18-20.82,3.82-31.21,1.93
				c-0.79-0.11-1.57-0.25-2.36-0.44l-1.39-0.34c-0.02-0.01-0.04-0.01-0.07-0.01l-16.32-3.99v0l-53.34-13.05
				c-32.55-7.95-57.19-34.57-62.62-67.65l-29.12-177.12L1554.52,494.78z"/>
			<path class="st5" d="M1466.8,572.79c4.21,26.32,35.73,55.8,54.79,52.75c19.06-3.05,20.41-25.15,16.2-51.47
				c-4.21-26.32-23.6-48.47-42.66-45.42C1476.07,531.7,1462.58,546.47,1466.8,572.79z"/>
			<path class="st4" d="M1582.75,396.01l78.3-12.23c26.26-4.1,53.11,1.4,75.65,15.48l30.62,19.14l-48.06-67.52l-66.71-13.75
				l-78.99,18.47L1582.75,396.01z"/>
		</g>
		<g>
			<path class="st5" d="M2030.18,425.49l2.38,25.39l0,0c1.16,7.89,7.52,13.5,13.89,12.23l0,0c6.09-1.22,9.82-8.28,8.32-15.77
				l-6.24-31.27c-0.97-4.84-5.04-8.03-8.91-6.98l0,0C2033.42,410.76,2029.45,417.66,2030.18,425.49z"/>
			<path class="st5" d="M2032.23,701.41c13.57-13.42,22.43-27.15,17.8-55.95c-3.7-23.01,13.32-36.37,1.33-45.45
				c-12.37-9.37-29.34-13.29-41.92-4.2c-3.21,2.32-31.61,2.01-34.16,1.24c-0.04-0.01-0.08-0.02-0.12-0.04
				c-13.41-4.15-8.29-12.35-38.96-24.71c-30.67-12.36-40.13,5.96-41.47,10.95c-1.34,4.98,14.55,7.08,21.72,9.36
				c7.17,2.28,20.41,19.15,29.2,25.32c5.14,3.61,14.03,15.49,20.52,24.73c6.1,8.69,12.89,16.87,20.29,24.49
				c10.81,11.14,17.61,23.45,29.35,30.21C2019.54,699.49,2028.35,700.13,2032.23,701.41z"/>
			<polygon class="st5" points="2076.74,839.44 2154.35,815.27 2084.11,648.27 2002.94,677.74 			"/>
			<path class="st5" d="M2006.53,607.17c6.14,43.38,8.6,89.24,10.39,90.79l81.64,11.07c9.63-7.18,16.32-11.88,28.58-93.32
				l4.27-30.08l-30.23-19.29c-4.69-2.99-9.69-5.47-14.9-7.39l-6.87-2.53c-13.99-5.16-29.23-5.89-43.66-2.09l-8.93,2.35
				C2021.54,557.83,2009.61,609.99,2006.53,607.17L2006.53,607.17z"/>
			<path class="st5" d="M2029.15,505.13l-10.25,85.6c-0.81,6.78,4.03,12.93,10.81,13.74l0,0c6.78,0.81,12.93-4.03,13.74-10.81
				l10.25-85.6c0.81-6.78-4.03-12.93-10.81-13.74l0,0C2036.11,493.51,2029.96,498.35,2029.15,505.13z"/>
			<path class="st5" d="M2031.33,450.6l-1.27,53.91c-0.15,6.39,4.91,11.69,11.3,11.84l0,0c6.39,0.15,11.69-4.91,11.84-11.3
				l1.27-53.91c0.15-6.39-4.91-11.69-11.3-11.84h0C2036.79,439.15,2031.48,444.21,2031.33,450.6z"/>
			<path class="st5" d="M2072.51,415.39l0.06,25.53l0,0c0.47,7.97,6.82,14.02,13.85,13.2l0,0c6.73-0.78,11.47-7.56,10.59-15.15
				l-3.67-31.67c-0.57-4.9-4.66-8.38-8.97-7.61l0,0C2077.48,400.9,2072.5,407.51,2072.51,415.39z"/>
			<path class="st5" d="M2068.45,486.55l-14.23,74.69c-1.29,6.76,3.15,13.29,9.91,14.57l0,0c6.76,1.29,13.29-3.15,14.57-9.91
				l14.23-74.69c1.29-6.76-3.15-13.29-9.91-14.57l0,0C2076.26,475.35,2069.74,479.79,2068.45,486.55z"/>
			<path class="st5" d="M2072.31,443.83l-3.39,45.83c-0.5,6.71,4.54,12.56,11.25,13.05l0,0c6.71,0.5,12.56-4.54,13.05-11.25
				l3.39-45.83c0.5-6.71-4.54-12.56-11.25-13.05l0,0C2078.65,432.08,2072.8,437.11,2072.31,443.83z"/>
			<path class="st5" d="M2117.61,446.08l-4.87,22.97l0,0c-1.12,7.24,3.29,13.67,9.62,14.04l0,0c6.06,0.35,11.53-5.01,12.22-11.98
				l2.88-29.06c0.45-4.5-2.48-8.26-6.41-8.25l0,0C2124.77,433.83,2119.11,439,2117.61,446.08z"/>
			<path class="st5" d="M2103.99,504.17l-19.27,59.51c-2.26,7,0.66,14.17,6.52,16.03l0,0c5.87,1.86,12.46-2.31,14.73-9.31
				l19.27-59.51c2.26-7-0.66-14.17-6.52-16.03l0,0C2112.85,493.01,2106.25,497.18,2103.99,504.17z"/>
			<path class="st5" d="M2112.83,469.47l-7.21,30.35c-1.7,7.14,1.7,13.96,7.59,15.23l0,0c5.89,1.27,12.04-3.48,13.74-10.62
				l7.21-30.35c1.7-7.14-1.7-13.96-7.59-15.23l0,0C2120.68,457.58,2114.53,462.33,2112.83,469.47z"/>
			<path class="st5" d="M2143.08,500.88l-5.83,21.63v0c-1.45,6.85,2.32,13.43,8.23,14.35l0,0c5.65,0.88,11.07-3.78,12.11-10.41
				l4.31-27.66c0.67-4.28-1.87-8.16-5.55-8.5l0,0C2150.46,489.76,2144.88,494.21,2143.08,500.88z"/>
			<path class="st5" d="M2124.65,551.29l-27.72,55.73c-2.68,5.38-0.48,11.92,4.9,14.59v0c5.38,2.68,11.92,0.48,14.59-4.9
				l27.72-55.73c2.68-5.38,0.48-11.92-4.9-14.59l0,0C2133.86,543.72,2127.33,545.91,2124.65,551.29z"/>
			<path class="st5" d="M2137.59,520.22l-12.3,30.57c-2.23,5.53,0.46,11.82,5.99,14.05l0,0c5.53,2.23,11.82-0.46,14.05-5.99
				l12.3-30.57c2.23-5.53-0.46-11.82-5.99-14.05l0,0C2146.1,512.01,2139.81,514.69,2137.59,520.22z"/>
		</g>
		<g>
			<path class="st3" d="M2126.08,745.33c94.42,148.37,250.87,500.84,271.68,610.35c17.26,90.85-38.15,100-40.3,101.1
				c-25.26,12.92-74.66-7.37-87.51-38.56l-225.27-637.56L2126.08,745.33z"/>
		</g>
		<g>
			<path class="st5" d="M1510.84,647.74l-20.57,15.08l0,0c-6.67,4.38-15.09,3.34-18.36-2.27l0,0c-3.14-5.36-0.33-12.84,6.27-16.69
				l27.53-16.09c4.26-2.49,9.35-1.56,11.14,2.03l0,0C1519.71,635.54,1517.18,643.09,1510.84,647.74z"/>
			<path class="st5" d="M1303.16,829.42c1.03-19.06,5.4-34.8,30.01-50.46c19.66-12.51,18.35-34.1,33.1-31.17
				c15.22,3.03,29.42,13.11,30.98,28.56c0.4,3.95,19.48,24.97,21.76,26.37c0.03,0.02,0.07,0.04,0.1,0.06
				c12.01,7.27,14.74-2,44.34,12.72c29.6,14.73,22.18,33.97,19.35,38.28c-2.84,4.3-14.96-6.18-21.42-10.03
				c-6.46-3.85-27.87-2.55-38.32-5.03c-6.12-1.45-20.9-0.21-32.12,1.07c-10.55,1.2-21.18,1.56-31.78,1.09
				c-15.51-0.69-29.22,2.4-42.08-1.89C1313.02,837.63,1306.69,831.47,1303.16,829.42z"/>
			<polygon class="st5" points="1242.29,958.3 1168.59,923.99 1260.48,767.85 1337,807.89 			"/>
			<path class="st5" d="M1390.69,786.07c-36.51,24.22-72.44,52.83-74.79,52.51l-62.48-53.7c-1.03-11.97-1.95-20.09,50.8-83.33
				l19.66-23.16l34.5,9.8c5.35,1.52,10.52,3.61,15.43,6.24l6.45,3.45c13.15,7.04,23.81,17.95,30.55,31.26l4.17,8.24
				C1417.62,742.08,1386.54,785.64,1390.69,786.07L1390.69,786.07z"/>
			<path class="st5" d="M1451.97,701.39l-57.21,64.5c-4.53,5.11-12.34,5.58-17.45,1.05v0c-5.11-4.53-5.58-12.34-1.05-17.45
				l57.21-64.5c4.53-5.11,12.34-5.58,17.45-1.05l0,0C1456.04,688.47,1456.51,696.28,1451.97,701.39z"/>
			<path class="st5" d="M1491.3,663.55l-39.47,36.74c-4.68,4.36-12,4.09-16.36-0.58l0,0c-4.36-4.68-4.09-12,0.58-16.36l39.47-36.74
				c4.68-4.36,12-4.09,16.36,0.58l0,0C1496.24,651.87,1495.98,659.2,1491.3,663.55z"/>
			<path class="st5" d="M1490.28,609.38l-19.13,16.91l0,0c-6.27,4.94-15.01,4.21-19.07-1.59l0,0c-3.88-5.55-1.96-13.6,4.3-17.98
				l26.12-18.29c4.04-2.83,9.36-2.07,11.65,1.65l0,0C1497.81,596.05,1496.18,604.17,1490.28,609.38z"/>
			<path class="st5" d="M1439.77,659.67l-46.4,60.23c-4.2,5.45-12.03,6.47-17.48,2.27v0c-5.45-4.2-6.47-12.03-2.27-17.48l46.4-60.23
				c4.2-5.45,12.03-6.47,17.48-2.27v0C1442.95,646.39,1443.97,654.22,1439.77,659.67z"/>
			<path class="st5" d="M1469.16,628.42l-32.02,32.97c-4.69,4.83-12.4,4.94-17.23,0.25v0c-4.83-4.69-4.94-12.4-0.25-17.23
				l32.02-32.97c4.69-4.83,12.4-4.94,17.23-0.25h0C1473.73,615.87,1473.85,623.59,1469.16,628.42z"/>
			<path class="st5" d="M1437.39,596.04l-13.94,18.89l0,0c-4.67,5.64-12.41,6.62-16.88,2.13l0,0c-4.28-4.3-3.91-11.95,0.84-17.09
				l19.82-21.45c3.07-3.32,7.83-3.63,10.42-0.68v0C1441.8,582.56,1441.69,590.22,1437.39,596.04z"/>
			<path class="st5" d="M1403,644.8l-31.71,53.92c-3.73,6.34-11.03,8.92-16.32,5.77l0,0c-5.28-3.15-6.55-10.85-2.82-17.19
				l31.71-53.92c3.73-6.34,11.03-8.92,16.32-5.77l0,0C1405.46,630.76,1406.72,638.46,1403,644.8z"/>
			<path class="st5" d="M1423.07,615.14l-17.91,25.55c-4.21,6.01-11.57,7.99-16.43,4.44l0,0c-4.86-3.56-5.39-11.31-1.18-17.32
				l17.91-25.55c4.21-6.01,11.57-7.99,16.43-4.44l0,0C1426.75,601.38,1427.28,609.13,1423.07,615.14z"/>
			<path class="st5" d="M1379.5,613.38l-12.3,18.72l0,0c-4.16,5.64-11.58,7.18-16.2,3.38l0,0c-4.41-3.64-4.53-10.79-0.26-15.96
				l17.82-21.59c2.76-3.34,7.34-4.02,10.04-1.5h0C1382.92,600.47,1383.3,607.6,1379.5,613.38z"/>
			<path class="st5" d="M1354.05,660.64l-23.27,57.74c-2.25,5.58-8.59,8.27-14.16,6.03l0,0c-5.58-2.25-8.27-8.59-6.03-14.16
				l23.27-57.73c2.25-5.58,8.59-8.27,14.16-6.03l0,0C1353.59,648.72,1356.29,655.06,1354.05,660.64z"/>
			<path class="st5" d="M1368.68,630.33l-14.69,29.49c-2.66,5.34-9.14,7.51-14.48,4.85l0,0c-5.34-2.66-7.51-9.14-4.85-14.48
				l14.69-29.49c2.66-5.34,9.14-7.51,14.48-4.85l0,0C1369.17,618.51,1371.34,624.99,1368.68,630.33z"/>
		</g>
		<g>
			<path class="st3" d="M1205.94,858.45c-113.37,134.45-315.43,462.9-350.67,568.66c-29.23,87.73,24.47,104.19,26.45,105.57
				c23.31,16.17,74.98,2.65,91.87-26.54l308.3-601.81L1205.94,858.45z"/>
		</g>
	</g>
	<path class="st6" d="M2606.14,1740.98H993.86c-30.98,0-56.09-25.11-56.09-56.09v0c0-30.98,25.11-56.09,56.09-56.09h1612.28
		c30.98,0,56.09,25.11,56.09,56.09v0C2662.23,1715.87,2637.11,1740.98,2606.14,1740.98z"/>
	<path class="st7" d="M2390.54,1372.69c32.65,8.83,58.48,24.91,70.1,32.99c0.21-0.97,0.42-1.94,0.63-2.91
		c5.44-24.93,12.27-52.94,20.76-82.99c-13.09-2.17-44.06-8.78-74.75-26.23c-40.35-22.94-64.89-55.92-64.89-55.92
		s40.89,4.22,81.24,27.16c29.68,16.87,50.79,39.16,59.88,49.78c7.14-24.89,15.42-51.12,24.99-78.16
		c-12.37-5.61-40.21-19.88-65.06-44.25c-33.14-32.5-48.43-70.65-48.43-70.65s38.45,14.53,71.59,47.03
		c23.16,22.7,37.58,48.15,44.18,61.44c9.7-26.94,20.71-54.62,33.16-82.51c-11.34-7.4-36.73-25.76-57.62-53.7
		c-27.8-37.17-37.09-77.21-37.09-77.21s35.78,20.22,63.58,57.4c19.15,25.61,29.52,52.58,34.11,66.88
		c8.51-18.75,17.68-37.56,27.57-56.29c-7.74-11.23-24.2-37.73-32.94-71.33c-11.69-44.92-5.15-85.5-5.15-85.5
		s25.48,32.25,37.17,77.17c7.1,27.3,7.47,52.97,6.67,68.93c7.09-13.04,14.51-26.02,22.31-38.88c3.59-15.56,10.96-40.22,25.29-64.58
		c23.53-40.01,56.86-64.07,56.86-64.07s-4.81,40.82-28.34,80.83c-14.17,24.11-31.9,42.41-43.76,53.16
		c-8.08,13.3-15.75,26.73-23.05,40.22c13.8-6.1,40.7-16.22,72.39-18.95c46.24-3.99,85.16,9.26,85.16,9.26s-36.07,19.72-82.31,23.71
		c-35.12,3.03-65.99-3.88-78.82-7.38c-9.98,18.78-19.23,37.66-27.82,56.47c13.81-1.93,44.44-4.67,77.91,2.35
		c45.43,9.54,78.85,33.46,78.85,33.46s-40.22,8.46-85.65-1.08c-34.51-7.25-62.08-22.79-73.35-29.84c-12.89,28.6-24.23,57-34.2,84.64
		c13.78-3.16,43.78-8.44,77.41-4.44c46.09,5.49,81.5,26.36,81.5,26.36s-39.32,11.98-85.41,6.49c-34.71-4.13-63.36-16.99-75.39-23.09
		c-9.71,27.29-18.09,53.78-25.29,78.88c13.84-3.67,43.38-9.88,76.79-7.12c46.26,3.82,82.4,23.41,82.4,23.41s-38.86,13.39-85.12,9.57
		c-34.4-2.84-63.18-14.39-75.69-20.13c-8.37,29.64-15.11,57.28-20.48,81.89c-0.27,1.23-0.53,2.46-0.8,3.68
		c9.17-1.6,44.31-6.67,83.31,1.51c45.43,9.54,78.85,33.46,78.85,33.46s-40.22,8.46-85.65-1.08c-39.01-8.19-69.15-26.97-76.89-32.12
		c-21.65,101.05-25.59,172.78-25.63,173.5l-11.36-0.59c0.04-0.72,3.93-71.67,25.14-171.87c-13.96,1.13-44.6,2.08-77.51-6.82
		c-44.81-12.12-76.81-37.92-76.81-37.92S2345.73,1360.57,2390.54,1372.69z"/>
	<path class="st7" d="M2642.94,1479.58c19.65,12.4,33.35,28.18,39.35,35.84c0.33-0.59,0.67-1.19,1-1.78
		c8.61-15.27,18.76-32.28,30.41-50.29c-8.15-4.07-27.15-14.67-43.77-32.33c-21.85-23.22-31.29-49.83-31.29-49.83
		s25.99,11.03,47.84,34.25c16.07,17.08,25.42,35.98,29.25,44.79c9.72-14.9,20.46-30.44,32.21-46.26
		c-6.99-6.19-22.38-21.18-33.77-42.2c-15.19-28.04-17.51-56.18-17.51-56.18s22.31,17.31,37.49,45.35
		c10.61,19.59,14.94,39.21,16.59,49.27c11.82-15.73,24.64-31.67,38.45-47.46c-5.95-7.15-18.91-24.34-26.97-46.9
		c-10.74-30.02-8.74-58.19-8.74-58.19s19.4,20.51,30.14,50.54c7.4,20.69,8.75,40.49,8.87,50.81c9.38-10.59,19.21-21.08,29.48-31.38
		c-2.81-8.94-8.26-29.67-7.2-53.49c1.41-31.85,13.91-57.18,13.91-57.18s10.21,26.33,8.8,58.18c-0.86,19.36-5.8,36.29-9.56,46.6
		c7.29-7.13,14.79-14.15,22.51-21.01c5.5-9.49,15.33-24.19,29.66-37.29c23.54-21.51,50.28-30.56,50.28-30.56
		s-11.41,25.83-34.95,47.34c-14.18,12.96-29.52,21.39-39.48,26.05c-7.99,7.1-15.74,14.36-23.27,21.74c10.29-1.21,30-2.42,51.36,2.2
		c31.17,6.73,54.03,23.29,54.03,23.29s-27.67,5.65-58.83-1.08c-23.67-5.11-42.54-15.89-50.26-20.78
		c-10.35,10.31-20.24,20.83-29.68,31.45c9.46,1.53,30.12,5.92,50.67,17.3c27.9,15.45,45,37.91,45,37.91s-28.12-2.58-56.01-18.02
		c-21.19-11.74-36.15-27.51-42.12-34.42c-14.24,16.17-27.43,32.52-39.57,48.65c9.69,0.71,30.45,3.31,51.72,12.74
		c29.15,12.92,48.18,33.79,48.18,33.79s-28.24-0.09-57.39-13.01c-21.95-9.73-38.16-23.97-44.83-30.4
		c-11.89,15.95-22.75,31.65-32.56,46.67c9.83,0.39,30.48,2.28,51.85,10.85c29.6,11.86,49.36,32.03,49.36,32.03
		s-28.22,0.93-57.82-10.93c-22.01-8.82-38.57-22.22-45.62-28.52c-11.49,17.77-21.5,34.55-30.01,49.62c-0.43,0.75-0.85,1.5-1.27,2.25
		c6.35,0.8,30.44,4.58,54.39,17.84c27.9,15.45,45,37.91,45,37.91s-28.12-2.58-56.01-18.02c-23.96-13.26-39.94-31.69-43.99-36.63
		c-34.64,61.96-51.73,108.26-51.91,108.73l-7.34-2.69c0.17-0.47,17.07-46.26,51.25-107.76c-9.4-2.08-29.7-7.65-49.51-20.15
		c-26.97-17.02-42.76-40.42-42.76-40.42S2615.97,1462.57,2642.94,1479.58z"/>
	<g>
		<path class="st6" d="M2866.25,734.13c47.75,0,88.02,32.03,100.51,75.77h-201.02C2778.22,766.15,2818.49,734.13,2866.25,734.13z"/>
		<path class="st6" d="M2376.35,698.28c70.34,0,129.67,47.18,148.06,111.62h-296.12C2246.68,745.46,2306,698.28,2376.35,698.28z"/>
		<path class="st6" d="M2835.84,809.9c-22.7-78.56-112.67-137.24-220.21-137.24s-197.51,58.68-220.21,137.24H2835.84z"/>
	</g>
	<g>
		<path class="st8" d="M2520.01,803.1c-19.35,0-35.67,12.98-40.73,30.71h81.47C2555.69,816.08,2539.37,803.1,2520.01,803.1z"/>
		<path class="st8" d="M2718.56,788.58c-28.51,0-52.55,19.12-60,45.24h120.01C2771.11,807.7,2747.07,788.58,2718.56,788.58z"/>
		<path class="st8" d="M2532.34,833.81c9.2-31.84,45.66-55.62,89.25-55.62c43.58,0,80.05,23.78,89.25,55.62H2532.34z"/>
	</g>
	<g>
		<path class="st9" d="M2995.3,1055.58c25.53,0,47.06,17.12,53.73,40.51h-107.46C2948.24,1072.7,2969.77,1055.58,2995.3,1055.58z"/>
		<path class="st9" d="M3058.18,1068.13c17.62,0,32.47,11.82,37.08,27.95h-74.16C3025.7,1079.94,3040.56,1068.13,3058.18,1068.13z"
			/>
		<path class="st9" d="M2978.26,1096.08c-7.22-24.97-35.82-43.63-70-43.63c-34.19,0-62.78,18.65-70,43.63H2978.26z"/>
	</g>
	<g>
		<path class="st9" d="M1215.05,373.04c25.53,0,47.06,17.12,53.73,40.51h-107.46C1168,390.16,1189.52,373.04,1215.05,373.04z"/>
		<path class="st9" d="M1277.93,385.59c17.62,0,32.47,11.82,37.08,27.95h-74.16C1245.46,397.41,1260.31,385.59,1277.93,385.59z"/>
		<path class="st9" d="M1198.01,413.55c-7.22-24.97-35.82-43.63-70-43.63c-34.19,0-62.78,18.65-70,43.63H1198.01z"/>
	</g>
	<g>
		<path class="st8" d="M1195.8,568.36c44.03,0,81.16,29.53,92.68,69.87h-185.35C1114.63,597.9,1151.77,568.36,1195.8,568.36z"/>
		<path class="st8" d="M744.07,535.31c64.86,0,119.56,43.5,136.52,102.92H607.55C624.51,578.81,679.21,535.31,744.07,535.31z"/>
		<path class="st8" d="M1167.76,638.23c-20.93-72.44-103.89-126.54-203.05-126.54c-99.16,0-182.12,54.1-203.05,126.54H1167.76z"/>
	</g>
	<g>
		<path class="st10" d="M917.64,609.29c33.06,0,60.94,22.17,69.58,52.46H848.06C856.71,631.46,884.59,609.29,917.64,609.29z"/>
		<path class="st10" d="M999.07,625.54c22.81,0,42.05,15.3,48.02,36.2h-96.04C957.02,640.85,976.26,625.54,999.07,625.54z"/>
		<path class="st10" d="M895.57,661.74c-9.35-32.34-46.38-56.5-90.65-56.5s-81.31,24.16-90.65,56.5H895.57z"/>
	</g>
	<g>
		<path class="st11" d="M1586.4,1301.94c4.21-1.62,8.98-2.79,14.3-3.42l0.92-17.04l21.64,1.17l-0.88,16.27
			c7.65,0.87,15.14,2.55,21.83,4.77c3.35,1.11,6.43,3.79,9.29,5.15c2.87,1.36,5.52,1.4,7.74,2.95l-13.09,25.77
			c-9.81-6.53-23.11-11.1-34.93-11.73c-10.28-0.55-14.08,1.4-14.28,5.08c-0.73,13.51,59.26,5.81,57.1,45.87
			c-0.6,11.09-6.28,20.77-16.92,26.88 M1633.16,1406.5c-4.84,1.88-10.43,3.16-16.77,3.7l-0.9,16.73l-21.64-1.17l0.88-16.42
			c-3.82-0.57-7.6-1.35-11.25-2.34c-1.62-0.44-3.22-0.92-4.78-1.44c-2.31-0.77-3.87-2.64-6.03-3.59c-2.82-1.25-6.17-1.65-8.62-3.21
			l12.31-25.66c10.3,5.94,20.14,9.09,29.5,9.59c10.59,0.57,14.13-2.32,14.33-6c0.69-12.89-59.29-5.35-57.15-44.95
			c0.41-7.55,3.28-14.53,8.55-20.15"/>
	</g>
	<path class="st11" d="M1965.7,1066.59c-9.72,3.61-18.53,11.74-22.8,27.14c-8.3,29.87,31.68,47.33,49.06,53.25
		s19.59,30.82,19.59,30.82s14.31-20.51,32.33-16.99c8.8,1.72,23.63,3.72,37.41,1.84"/>
	<path class="st11" d="M2102.41,1154.91c4.95-3.69,8.72-8.82,10.53-15.88c6.28-24.61-6.5-38.98-20.24-45.49
		c-2.63-1.25-5.29-2.2-7.87-2.89c-2.56-0.68-5.18-1.04-7.82-1.13c-22.85-0.78-46.88,18.54-46.88,18.54s-13.96-35.71-38.78-42.32"/>
	<path class="st11" d="M1857.03,1177.55c0.12,2.92,0.94,6.12,2.71,9.59c7.28,14.21,28.51,6.88,37.16,3.06
		c8.65-3.82,18.17,4.85,18.17,4.85s-1.73-12.76,6.32-17.71c8.05-4.95,26.14-18.28,18.57-32.34c-7.39-13.72-19.97-12.49-27.52-8.53
		c-11.71,6.15-14.65,25.68-14.65,25.68s-17.75-8.66-29.45-2.51c-2.25,1.18-4.55,2.87-6.49,5.02"/>
	<g>
		<g>
			<g>
				<path class="st11" d="M2208.59,1547.49l55.43,0.02c0.13,2.12,0.22,4.29,0.22,6.53c0,10.02-1.34,20.32-3.79,30.26"/>
				<path class="st11" d="M2257.87,1593.37c-3.43,10.67-8.12,20.67-13.76,29.14c-4.4,6.64-9.41,12.35-14.84,16.7l-47.69-0.02
					c-5.43-4.35-10.42-10.07-14.83-16.71c-12.31-18.52-20.07-44.31-20.06-68.48c0-2.25,0.09-4.41,0.22-6.53l52.63,0.02"/>
			</g>
			<path class="st11" d="M2146.43,1569.17c4.52,10.64,5.72,23.15-1.56,26.24c-7.28,3.09-20.28-4.42-24.8-15.05
				c-4.52-10.64-2.28-21.76,5-24.85C2132.36,1552.41,2141.92,1558.53,2146.43,1569.17z"/>
		</g>
		<g>
			<path class="st11" d="M2214.36,1485.48c0-11.36,5.06-11.36,5.06-22.71c0-11.36-5.05-11.36-5.04-22.72
				c0-11.36,5.06-11.36,5.06-22.72c0-11.36-5.05-11.36-5.04-22.72"/>
			<path class="st11" d="M2199.48,1530.91c0-11.36,5.06-11.36,5.06-22.71c0-11.36-5.05-11.36-5.04-22.72
				c0-11.36,5.06-11.36,5.06-22.72s-5.05-11.36-5.04-22.72"/>
		</g>
	</g>
	<g>
		<path class="st7" d="M2609.53,1561.82c53.43,0,98.48,35.83,112.45,84.78h-224.9C2511.05,1597.65,2556.11,1561.82,2609.53,1561.82z
			"/>
		<path class="st7" d="M2741.13,1588.09c36.87,0,67.96,24.73,77.6,58.5h-155.2C2673.17,1612.82,2704.26,1588.09,2741.13,1588.09z"/>
		<path class="st7" d="M2573.87,1646.59c-15.1-52.26-74.96-91.3-146.51-91.3s-131.4,39.04-146.51,91.3H2573.87z"/>
	</g>
	<g>
		<path class="st6" d="M1152.57,1536.39c69.69,0,128.46,46.74,146.68,110.58h-293.36
			C1024.11,1583.13,1082.88,1536.39,1152.57,1536.39z"/>
		<path class="st6" d="M1324.22,1570.66c48.09,0,88.65,32.25,101.22,76.31H1223C1235.57,1602.91,1276.13,1570.66,1324.22,1570.66z"
			/>
		<path class="st6" d="M1106.04,1646.97c-19.7-68.17-97.78-119.09-191.1-119.09s-171.4,50.92-191.1,119.09H1106.04z"/>
	</g>
	<g>
		<path class="st11" d="M1904.3,807.01c-20.47,1.28-150.99-0.57-150.99-0.57s46.06-77.48,51.18-90.28
			c2.03-5.09,12.36-22.31,24.07-41.22c2.57-4.15,5.2-8.38,7.83-12.57"/>
		<path class="st11" d="M1969.89,788.04l11.18,18.97c0,0-27.06-0.62-50.48-0.57"/>
		<line class="st11" x1="1936.74" y1="731.79" x2="1962.02" y2="774.69"/>
		<path class="st11" d="M1846.09,646.95c11.62-18.39,21.11-33.15,21.11-33.15l61.03,103.55"/>
		<path class="st11" d="M1988.26,1019.41c-72.87,0-154.72,0-167.13,0c-23.03,0-189.37,0-189.37,0s9.29-15.77,22.54-38.37"/>
		<path class="st11" d="M2021.98,1019.41c-7.28,0-14.8,0-22.48,0"/>
		<path class="st11" d="M1696.23,909.31c23.03-39.56,44.28-76.46,48.13-84.39c0,0,95.97,0,107.48,0c11.52,0,138.19,0,138.19,0
			s55.02,95.97,61.42,104.92c6.4,8.96,48.62,80.61,55.02,89.57c0,0-29.27,0-69.11,0"/>
		<path class="st11" d="M1665.67,961.65c6.04-10.32,12.5-21.36,19.02-32.53"/>
		<path class="st11" d="M2206.29,1194.24c13.03,22.2,22.68,38.58,24.42,41.42c0,0-72.72-0.6-149.42-0.92"/>
		<path class="st11" d="M2170.85,1133.8c8.35,14.24,16.76,28.59,24.54,41.86"/>
		<path class="st11" d="M1548.72,1160.81c29.83-51.12,65.08-111.47,71.52-122.21c0,0,157.38,1.28,176.58,0
			c19.19-1.28,156.1-0.14,176.58,0.57c20.47,0.71,142.03,0,142.03,0s23.08,39.44,48.62,83.02"/>
		<path class="st11" d="M1534.37,1185.42c2.68-4.59,5.46-9.36,8.32-14.27"/>
		<path class="st11" d="M2050.91,1234.62c-72.01-0.23-139.52-0.12-145.33,1.04c-12.8,2.56-400.5,0-400.5,0s9.55-16.38,23.17-39.74"
			/>
		<path class="st11" d="M1403.44,1419.68c22.84-38.97,56.52-96.78,60.7-105.97c6.4-14.08,34.55-60.14,34.55-60.14
			s83.17,0.64,170.02,0.96"/>
		<path class="st11" d="M1923.2,1455.74c-10.2,0-17.2,0-20.17,0c-29.43,0-520.78,0-520.78,0s4.5-7.62,11.39-19.35"/>
		<path class="st11" d="M2188.78,1455.74c-78.17,0-166.36,0-224.18,0"/>
		<path class="st11" d="M1746.7,1254.71c56.89,0.03,103.86-0.25,114.1-1.14c29.43-2.56,381.3,1.14,381.3,1.14l115.16,201.03
			c0,0-56.36,0-129.44,0"/>
		<path class="st11" d="M1688.61,1254.6c10.85,0.03,21.67,0.06,32.29,0.08c2.97,0.01,5.93,0.01,8.87,0.01"/>
		<path class="st11" d="M2399.94,1535.43c31.93,53.79,73.45,123.92,78.88,133.99c0,0-184.42-1.01-372.35-1.47"/>
		<path class="st11" d="M2232.26,1470.91c69.23,0.59,130.12,1.32,130.12,1.32s11.23,18.86,26.72,44.95"/>
		<path class="st11" d="M1958.98,1472.08c44.28-0.16,73.49-0.47,77.11-0.99c8.46-1.21,81.72-1.02,156.68-0.49"/>
		<path class="st11" d="M1615.02,1471.86c2.93,0.01,5.86,0.02,8.81,0.02c103.96,0.26,219.55,0.45,301.88,0.29"/>
		<path class="st11" d="M1367.52,1481.27c4.32-6.45,7.28-10.18,8.33-10.18c0,0,104.07,0.41,229.6,0.74"/>
		<path class="st11" d="M1331.37,1670.03c-43.2-0.33-71.96-0.61-71.96-0.61s70.74-129.01,102.15-178.93"/>
		<path class="st11" d="M1368.96,1670.3c-8.84-0.06-17.35-0.12-25.44-0.18"/>
		<path class="st11" d="M1998.91,1667.75c-138.95-0.15-259.77,0.18-282.7,1.67c-36.37,2.37-202.18,1.81-323.59,1.04
			c-2.72-0.02-5.42-0.03-8.1-0.05"/>
		<path class="st11" d="M2069.89,1667.87c-18.07-0.04-36.07-0.07-53.82-0.09"/>
	</g>
	<g>
		<path class="st8" d="M1877.21,1727.18c19.37,0,35.71,12.99,40.77,30.74h-81.55C1841.5,1740.18,1857.84,1727.18,1877.21,1727.18z"
			/>
		<path class="st8" d="M1872.78,1757.92c-7.94-27.46-39.39-47.97-76.98-47.97c-37.59,0-69.04,20.51-76.98,47.97H1872.78z"/>
	</g>
	<polyline class="st11" points="1902.79,763.97 1902.79,774.69 1831.6,774.69 1831.6,713.8 1848.72,744.24 1867.19,713.8 
		1884.76,744.24 1902.79,713.8 1902.79,746.59 	"/>
	<g>
		<path class="st11" d="M1533.79,1553.95c3.32,4.62,5.28,10.29,5.28,16.42c0,15.56-12.61,28.17-28.17,28.17
			c-15.56,0-28.17-12.61-28.17-28.17c0-15.56,12.61-28.17,28.17-28.17c5.37,0,10.38,1.5,14.65,4.1"/>
		<path class="st11" d="M1557.94,1494.88h-27.93v16h22l-21.57,21.57c-5.86-3.03-12.5-4.75-19.55-4.75c-8.45,0-16.33,2.46-22.95,6.69
			"/>
		<path class="st11" d="M1478.85,1542.19c-6.61,7.52-10.63,17.38-10.63,28.18c0,23.56,19.1,42.67,42.67,42.67
			s42.67-19.1,42.67-42.67c0-8.89-2.72-17.14-7.37-23.97l20.67-20.67v24.17h16v-55.02h-11.91"/>
	</g>
	<g>
		<path class="st11" d="M1605.45,1559.95c4.5,13.54,15.61,24.06,29.5,27.76v17.24h-10.13v20h10.13v11.97h22v-11.97h10.13v-20h-10.13
			v-17.24c18.23-4.85,31.67-21.47,31.67-41.23c0-8.46-2.46-16.34-6.7-22.97"/>
		<path class="st11" d="M1674.12,1514.45c-7.52-6.62-17.38-10.63-28.18-10.63c-22.12,0-40.3,16.83-42.45,38.38
			c-0.14,1.41-0.21,2.84-0.21,4.29"/>
		<path class="st11" d="M1634.18,1572.09c-9.68-4.46-16.41-14.25-16.41-25.61c0-15.56,12.61-28.17,28.17-28.17
			c15.56,0,28.17,12.61,28.17,28.17c0,15.56-12.61,28.17-28.17,28.17"/>
	</g>
	<g>
		<path class="st11" d="M1680.23,1090.15h-30.62v81.07h100.08c7.61,10.24,24.45,32.71,24.45,31.27c0-1.21-2.85-18.94-4.86-31.27
			h28.79v-81.07h-94.91"/>
		<line class="st11" x1="1668.47" y1="1111.86" x2="1770.76" y2="1111.86"/>
		<line class="st11" x1="1668.47" y1="1129.74" x2="1770.76" y2="1129.74"/>
		<line class="st11" x1="1668.47" y1="1147.61" x2="1770.76" y2="1147.61"/>
	</g>
	<g>
		<polyline class="st11" points="1864.86,868.41 1867.9,862.25 1877.63,881.97 1899.4,885.13 1883.65,900.49 1887.37,922.17 
			1867.9,911.93 1848.43,922.17 1852.15,900.49 1836.39,885.13 1858.16,881.97 1859.92,878.41 		"/>
		<path class="st11" d="M1936.35,922.17c-8.08,9.32-17.92,15.59-28.05,13.49"/>
		<path class="st11" d="M1926.31,871.97c0,0,25.84-10.18,29.29,3.85c1.57,6.39-2.63,20.52-10.17,33.48"/>
		<path class="st11" d="M1811.34,871.97c0,0-25.84-10.18-29.29,3.85c-3.45,14.03,20.93,65.3,47.3,59.84"/>
		<path class="st11" d="M1886.52,844.39h-69.65c-2.59,8.38-4.03,22.04-4.03,31.62c0,36.25,20.42,77.58,47.17,86.55v25.86h-15.16
			c-10.62,0-19.22,8.61-19.22,19.22h86.88c0-10.62-8.61-19.22-19.22-19.22h-15.08v-25.86c26.75-8.97,47.17-50.31,47.17-86.55
			c0-9.58-1.44-23.24-4.03-31.62h-17.08"/>
	</g>
	<g>
		<path class="st11" d="M1817.69,1354.2v-25.22h102.85v52.74c0,19.38-15.71,35.1-35.1,35.1h-32.66c-19.38,0-35.1-15.71-35.1-35.1
			v-8.82"/>
		<path class="st11" d="M1899.1,1294.68c4.75,6.29,7.57,14.13,7.57,22.62v11.68"/>
		<path class="st11" d="M1831.55,1328.98v-11.68c0-20.74,16.82-37.56,37.56-37.56h0c6.78,0,13.14,1.8,18.63,4.94"/>
		<path class="st11" d="M1880.81,1361.96c0-6.61-5.49-11.95-12.16-11.69c-6.04,0.23-11.03,5.25-11.24,11.29
			c-0.15,4.37,2.11,8.22,5.55,10.34v21.05c0,3.39,2.75,6.15,6.15,6.15l0,0c3.39,0,6.15-2.75,6.15-6.15v-21.05
			C1878.59,1369.83,1880.81,1366.16,1880.81,1361.96z"/>
	</g>
	<g>
		<path class="st11" d="M1986.82,1593.34c10.06-12.9,16.05-29.12,16.05-46.74l0,0h-101.56"/>
		<path class="st11" d="M1875.29,1546.6h-39.29l0,0c0,28.78,15.98,53.82,39.54,66.75v19.95h87.81v-19.95
			c5.75-3.16,11.05-7.03,15.77-11.51"/>
		<path class="st11" d="M1968.59,1510.98c-6.36-4.71-14.23-7.49-22.75-7.49c-4.86,0-9.5,0.91-13.77,2.56
			c-5.58-7.45-14.49-12.28-24.52-12.28c-14.74,0-27.04,10.42-29.95,24.29c-1.21-0.17-2.43-0.26-3.69-0.26
			c-14.51,0-26.27,11.76-26.27,26.27c0,0.85,0.04,1.69,0.12,2.52h21.31"/>
		<path class="st11" d="M1901.31,1546.6h82.5c0.2-1.58,0.31-3.18,0.31-4.82c0-6.31-1.53-12.27-4.23-17.52"/>
		<g>
			<path class="st11" d="M1946.68,1478.46c0-11.36,5.06-11.36,5.06-22.71c0-11.36-5.05-11.36-5.04-22.72
				c0-11.36,5.06-11.36,5.06-22.72c0-11.36-5.05-11.36-5.04-22.72"/>
			<path class="st11" d="M1931.81,1523.89c0-11.36,5.06-11.36,5.06-22.71c0-11.36-5.05-11.36-5.04-22.72
				c0-11.36,5.06-11.36,5.06-22.72c0-11.36-5.05-11.36-5.04-22.72"/>
		</g>
	</g>
	<polyline class="st11" points="2050.91,1366.35 2050.91,1426.93 2162.03,1426.93 2162.03,1405.73 	"/>
	<polyline class="st11" points="2162.03,1384.6 2162.03,1324.27 2106.47,1286.84 2080.54,1304.31 2080.54,1286.84 2068.61,1286.84 
		2068.61,1312.34 2050.91,1324.27 2050.91,1350.26 	"/>
	<g>
		<rect x="2085.98" y="1343.62" class="st11" width="40.98" height="40.98"/>
		<line class="st11" x1="2085.98" y1="1364.11" x2="2126.96" y2="1364.11"/>
		<line class="st11" x1="2106.47" y1="1343.62" x2="2106.47" y2="1384.6"/>
	</g>
	<g>
		<path class="st12" d="M1073.48,1612.94c36.31,0,66.94,24.35,76.43,57.62H997.04C1006.54,1637.3,1037.16,1612.94,1073.48,1612.94z"
			/>
		<path class="st12" d="M1162.92,1630.8c25.06,0,46.19,16.81,52.75,39.76h-105.49C1116.73,1647.61,1137.86,1630.8,1162.92,1630.8z"
			/>
		<path class="st12" d="M1049.23,1670.56c-10.27-35.52-50.95-62.06-99.58-62.06c-48.63,0-89.31,26.53-99.58,62.06H1049.23z"/>
	</g>
	<g>
		<g>
			<path class="st12" d="M997.08,1626.65l-4.51,0.07c0-0.2-0.27-19.92,3.5-47.08c3.48-25.09,11.21-61.9,28.29-94.75l4,2.08
				c-16.79,32.28-24.4,68.55-27.83,93.29C996.81,1607.09,997.07,1626.46,997.08,1626.65z"/>
		</g>
		<g>
			<path class="st12" d="M1037.02,1482.98c-0.1-4.61-3.93-8.27-8.54-8.17c-4.61,0.1-8.27,3.93-8.17,8.54
				c0.1,4.61,3.93,8.27,8.54,8.17S1037.12,1487.6,1037.02,1482.98z"/>
		</g>
		<g>
			<path class="st12" d="M1004.76,1479.68c-0.1-4.61-3.93-8.27-8.54-8.17c-4.61,0.1-8.27,3.93-8.17,8.54
				c0.1,4.61,3.93,8.27,8.54,8.17C1001.2,1488.12,1004.86,1484.3,1004.76,1479.68z"/>
		</g>
		<g>
			
				<ellipse transform="matrix(0.9938 -0.1111 0.1111 0.9938 -164.4424 125.2903)" class="st12" cx="1042.12" cy="1538.33" rx="8.36" ry="8.36"/>
		</g>
		<g>
			<path class="st12" d="M1012.63,1524.88l-4.48,0.47c-0.02-0.23-2.48-22.87-11.54-40.47l4.01-2.06
				C1010.07,1501.18,1012.53,1523.92,1012.63,1524.88z"/>
		</g>
		<g>
			<path class="st12" d="M1004.68,1553.4l-2.64-3.65c0.55-0.4,13.67-9.76,35.51-13.55l0.77,4.44
				C1017.49,1544.25,1004.81,1553.31,1004.68,1553.4z"/>
		</g>
	</g>
	<g>
		<g>
			<path class="st12" d="M1041.8,1646.59l-4.18-1.69c0.07-0.18,7.5-18.45,21.55-42.01c12.97-21.76,34.42-52.65,62.94-76.26
				l2.87,3.47c-28.03,23.2-49.16,53.65-61.95,75.1C1049.17,1628.47,1041.87,1646.42,1041.8,1646.59z"/>
		</g>
		<g>
			<path class="st12" d="M1134.51,1529.8c1.7-4.29-0.4-9.15-4.69-10.85c-4.29-1.7-9.15,0.4-10.85,4.69
				c-1.7,4.29,0.4,9.15,4.69,10.85C1127.95,1536.19,1132.81,1534.09,1134.51,1529.8z"/>
		</g>
		<g>
			<path class="st12" d="M1106.08,1514.21c1.7-4.29-0.4-9.15-4.69-10.85s-9.15,0.4-10.85,4.69c-1.7,4.29,0.4,9.15,4.69,10.85
				S1104.38,1518.5,1106.08,1514.21z"/>
		</g>
		<g>
			
				<ellipse transform="matrix(0.2552 -0.9669 0.9669 0.2552 -697.9202 2259.5222)" class="st12" cx="1117.67" cy="1582.77" rx="8.36" ry="8.36"/>
		</g>
		<g>
			<path class="st12" d="M1095.74,1558.9l-4.31-1.31c0.07-0.22,6.62-22.03,5.12-41.77l4.49-0.34
				C1102.61,1536.07,1096.02,1557.98,1095.74,1558.9z"/>
		</g>
		<g>
			<path class="st12" d="M1077.32,1582.08l-1.02-4.39c0.66-0.15,16.39-3.67,37.98,1.34l-1.02,4.39
				C1092.68,1578.64,1077.47,1582.05,1077.32,1582.08z"/>
		</g>
	</g>
	<circle class="st8" cx="1434.05" cy="1000.37" r="16.72"/>
	<circle class="st8" cx="640.41" cy="1527.88" r="16.72"/>
	<circle class="st8" cx="2924.98" cy="1459.17" r="16.72"/>
	<circle class="st8" cx="1998.91" cy="1396.64" r="16.72"/>
	<circle class="st8" cx="2228.29" cy="1103.03" r="16.72"/>
	<circle class="st8" cx="1753.61" cy="961.65" r="16.72"/>
	<circle class="st8" cx="1511.76" cy="1073.92" r="29.93"/>
	<circle class="st8" cx="1758.33" cy="1525.35" r="29.93"/>
	<circle class="st8" cx="1920.54" cy="486.95" r="29.93"/>
	<circle class="st8" cx="1268.78" cy="494.78" r="29.93"/>
	<g>
		<path class="st6" d="M1017.95,914.32c0,0-12.67-51.66,20.81-107.13c33.48-55.46-9.76-90.15-37.53-74.94
			C973.47,747.47,950.08,811.7,1017.95,914.32z"/>
		<path class="st6" d="M1058.05,958.08c0,0,23.2-47.87,84.36-69.23c61.16-21.36,49.98-75.65,18.89-81.65
			C1130.21,801.2,1071.23,835.75,1058.05,958.08z"/>
		<path class="st6" d="M1051.74,962.47c0,0-52.23-10.07-105.95,26.15c-53.72,36.21-90.52-5.24-76.72-33.73
			C882.87,926.39,945.85,899.81,1051.74,962.47z"/>
		<path class="st6" d="M1106.71,1060.36c0,0-52.23-10.07-105.95,26.15c-53.72,36.21-90.52-5.24-76.72-33.73
			C937.84,1024.28,1000.82,997.7,1106.71,1060.36z"/>
		<path class="st6" d="M1133.26,1160.81c0,0-52.23-10.07-105.95,26.15c-53.72,36.21-90.52-5.24-76.72-33.73
			C964.39,1124.74,1027.37,1098.16,1133.26,1160.81z"/>
		<path class="st6" d="M1160.74,1286.55c0,0-52.23-10.07-105.95,26.15c-53.72,36.21-90.52-5.24-76.72-33.73
			C991.87,1250.48,1054.86,1223.9,1160.74,1286.55z"/>
		<path class="st6" d="M1106.07,1059.59c0,0,23.2-47.87,84.36-69.23c61.16-21.36,49.98-75.65,18.89-81.65
			C1178.23,902.71,1119.25,937.26,1106.07,1059.59z"/>
		<path class="st6" d="M1140.4,1170.75c0,0,23.2-47.87,84.36-69.23s49.98-75.65,18.89-81.65S1153.58,1048.42,1140.4,1170.75z"/>
		<path class="st6" d="M1164.77,1284.92c0,0,23.2-47.87,84.36-69.23c61.16-21.36,49.98-75.65,18.89-81.65
			S1177.94,1162.59,1164.77,1284.92z"/>
		<g>
			<path class="st6" d="M1186.11,1602.45l-10.93-1.97c1.64-39.7,2.1-84.28,0.29-131.9c-2.08-54.48-7.36-116.84-18.4-182.56
				c-0.1-0.6-0.2-1.19-0.31-1.79c-6.83-40.43-15.86-82.11-27.66-124c-0.2-0.73-0.42-1.48-0.62-2.21
				c-9.38-33.01-20.47-66.12-33.57-98.83c-0.95-2.38-1.91-4.75-2.9-7.13c-12.52-30.54-26.83-60.69-43.16-90.04
				c-0.35-0.62-0.69-1.24-1.04-1.86c-9.52-17.02-19.74-33.78-30.68-50.17c-3.66-5.47-7.39-10.93-11.21-16.32
				c-1.76-2.48-1.17-5.91,1.3-7.66c2.49-1.76,5.91-1.17,7.67,1.31c0.24,0.34,0.49,0.68,0.72,1.02
				c15.53,22.04,29.71,44.76,42.63,67.98c0.13,0.22,0.26,0.44,0.38,0.66c18.27,32.88,34.04,66.74,47.63,101
				c0.1,0.23,0.19,0.47,0.28,0.71c13.7,34.59,25.18,69.59,34.78,104.41c0.37,1.33,0.73,2.68,1.09,4.01
				c9.79,36.01,17.57,71.81,23.72,106.73c0.4,2.21,0.78,4.4,1.16,6.59c11.57,67.71,17.07,131.97,19.19,187.99
				C1188.3,1516.86,1187.8,1562.17,1186.11,1602.45z"/>
		</g>
	</g>
	<g>
		<path class="st6" d="M696.67,1208.68c0,0-18.68-25.3-13.06-63.18s-25.87-46.95-37.55-32.32
			C634.37,1127.8,636.25,1168.17,696.67,1208.68z"/>
		<path class="st6" d="M728.51,1223.41c0,0,1.74-31.4,30.24-56.99c28.49-25.59,10.02-52.66-8.3-48.85
			C732.12,1121.39,707.82,1153.68,728.51,1223.41z"/>
		<path class="st6" d="M726.07,1227.24c0,0-30.79,6.41-51.83,38.41c-21.05,32-50.57,17.77-49.54-0.91
			C625.73,1246.06,654.03,1217.2,726.07,1227.24z"/>
		<path class="st6" d="M778.37,1268.11c0,0-30.79,6.41-51.83,38.41c-21.05,32-50.57,17.77-49.54-0.91
			C678.03,1286.92,706.33,1258.07,778.37,1268.11z"/>
		<path class="st6" d="M815.74,1316.86c0,0-30.79,6.41-51.83,38.41c-21.05,32-50.57,17.77-49.54-0.91
			C715.4,1335.67,743.7,1306.82,815.74,1316.86z"/>
		<path class="st6" d="M859.4,1379.19c0,0-30.79,6.41-51.83,38.41c-21.05,32-50.57,17.77-49.54-0.91
			C759.06,1398,787.35,1369.14,859.4,1379.19z"/>
		<path class="st6" d="M777.84,1267.84c0,0,1.74-31.4,30.24-56.99c28.49-25.59,10.02-52.66-8.3-48.85
			C781.45,1165.82,757.15,1198.11,777.84,1267.84z"/>
		<path class="st6" d="M821.9,1320.65c0,0,1.74-31.4,30.24-56.99c28.49-25.59,10.02-52.66-8.3-48.85
			C825.51,1218.63,801.21,1250.92,821.9,1320.65z"/>
		<path class="st6" d="M861.22,1377.38c0,0,1.74-31.4,30.24-56.99c28.49-25.59,10.02-52.66-8.3-48.85
			C864.83,1275.35,840.52,1307.64,861.22,1377.38z"/>
		<g>
			<path class="st6" d="M945.23,1545.72l-6.41,1.42c-8.16-22.03-18.06-46.45-29.91-72.01c-13.55-29.25-30.65-62.06-51.64-95.39
				c-0.19-0.3-0.38-0.6-0.58-0.91c-12.94-20.5-27.37-41.18-43.35-61.33c-0.28-0.35-0.56-0.71-0.84-1.06
				c-12.64-15.87-26.24-31.4-40.84-46.26c-1.06-1.08-2.13-2.16-3.21-3.23c-13.79-13.81-28.47-26.99-44.07-39.28
				c-0.33-0.26-0.66-0.52-0.99-0.78c-9.07-7.11-18.47-13.93-28.17-20.38c-3.24-2.15-6.52-4.28-9.84-6.35
				c-1.53-0.95-1.99-2.96-1.03-4.48c0.96-1.53,2.96-1.99,4.48-1.04c0.21,0.13,0.42,0.26,0.63,0.39
				c13.5,8.48,26.41,17.64,38.75,27.37c0.12,0.09,0.24,0.18,0.36,0.28c17.46,13.77,33.78,28.65,49,44.24
				c0.1,0.1,0.21,0.21,0.32,0.32c15.35,15.75,29.6,32.22,42.77,49.03c0.5,0.64,1.01,1.29,1.51,1.94
				c13.55,17.41,25.95,35.17,37.26,52.81c0.72,1.11,1.43,2.22,2.13,3.33c21.74,34.3,39.39,68.1,53.32,98.17
				C926.92,1498.54,936.97,1523.36,945.23,1545.72z"/>
		</g>
	</g>
	<g>
		<path class="st10" d="M2515.78,1626.47c33.06,0,60.94,22.17,69.58,52.46H2446.2C2454.84,1648.64,2482.72,1626.47,2515.78,1626.47z
			"/>
		<path class="st10" d="M2597.21,1642.73c22.81,0,42.05,15.3,48.02,36.2h-96.04C2555.16,1658.03,2574.4,1642.73,2597.21,1642.73z"/>
		<path class="st10" d="M2493.71,1678.93c-9.35-32.34-46.38-56.5-90.65-56.5s-81.31,24.16-90.65,56.5H2493.71z"/>
	</g>
</g>
</svg>
