<?xml version="1.0" standalone="no"?>
<!DOCTYPE svg PUBLIC "-//W3C//DTD SVG 20010904//EN"
 "http://www.w3.org/TR/2001/REC-SVG-20010904/DTD/svg10.dtd">
<svg version="1.0" xmlns="http://www.w3.org/2000/svg"
 width="960.000000pt" height="960.000000pt" viewBox="0 0 960.000000 960.000000"
 preserveAspectRatio="xMidYMid meet">
<metadata>
Created by potrace 1.14, written by Peter Selinger 2001-2017
</metadata>
<g transform="translate(0.000000,960.000000) scale(0.100000,-0.100000)"
fill="#000000" stroke="none">
<path d="M4610 8264 c-115 -20 -126 -23 -219 -54 -188 -65 -342 -161 -487
-305 -103 -102 -169 -188 -220 -285 -16 -30 -33 -58 -39 -62 -5 -4 -6 -8 -1
-8 4 0 2 -10 -6 -22 -8 -13 -22 -45 -32 -73 -10 -27 -22 -59 -27 -70 -5 -11
-15 -49 -23 -85 -71 -313 -44 -585 85 -866 28 -62 101 -186 122 -210 7 -7 23
-27 37 -46 34 -46 157 -168 205 -203 22 -17 42 -32 45 -35 17 -20 125 -84 213
-127 53 -26 182 -72 237 -84 19 -4 46 -10 60 -13 57 -14 132 -20 245 -20 159
-1 211 6 375 48 39 10 156 58 219 90 220 110 447 332 549 536 13 25 27 52 32
60 13 24 36 80 58 147 71 207 86 452 42 658 -6 28 -12 59 -14 70 -2 11 -5 27
-8 35 -3 8 -16 44 -28 80 -25 73 -81 193 -92 198 -5 2 -8 8 -8 13 0 15 -77
127 -134 194 -28 33 -81 87 -119 120 -37 33 -74 65 -81 72 -63 57 -249 154
-382 199 -174 58 -431 79 -604 48z m390 -164 c243 -46 437 -147 605 -315 178
-178 288 -392 324 -630 8 -55 7 -300 -2 -355 -14 -86 -60 -226 -104 -315 -25
-49 -49 -91 -54 -93 -5 -2 -9 -8 -9 -13 0 -18 -84 -124 -155 -195 -141 -142
-338 -253 -524 -295 -80 -18 -85 -19 -141 -26 -239 -28 -479 23 -695 146 -291
167 -500 472 -550 805 -12 85 -14 301 -2 343 3 10 8 34 11 53 9 64 65 220 108
302 64 125 158 239 290 356 21 17 39 32 42 32 2 0 28 16 57 36 49 33 168 95
194 101 6 1 33 10 61 21 28 11 69 23 90 27 21 5 46 10 54 12 8 1 40 6 70 9 30
4 56 7 58 9 8 7 217 -5 272 -15z"/>
<path d="M4730 7499 c-78 -14 -88 -17 -160 -55 -124 -65 -214 -173 -258 -311
-6 -18 -8 -33 -5 -33 3 0 1 -6 -4 -12 -19 -24 -8 -197 16 -267 136 -393 642
-478 902 -152 124 156 143 387 48 562 -13 24 -27 46 -31 47 -5 2 -8 8 -8 14 0
15 -108 116 -144 135 -17 9 -34 21 -38 27 -4 6 -8 8 -8 3 0 -4 -13 -1 -29 7
-64 34 -195 49 -281 35z m190 -176 c30 -10 61 -23 68 -30 7 -7 17 -13 22 -13
18 0 98 -91 120 -136 28 -61 34 -92 33 -174 -1 -75 -32 -155 -82 -212 -33 -38
-116 -96 -147 -103 -11 -2 -32 -8 -49 -13 -100 -28 -246 17 -327 101 -87 91
-118 200 -91 320 29 129 120 232 233 262 3 1 12 4 20 8 45 18 118 14 200 -10z"/>
<path d="M2735 5232 c-23 -3 -97 -71 -357 -330 -180 -180 -332 -328 -337 -330
-6 -2 -9 62 -9 156 0 128 -3 164 -16 190 -46 89 -176 91 -224 3 -18 -34 -20
-56 -20 -361 0 -179 2 -337 4 -352 7 -38 57 -86 96 -92 28 -4 658 -2 695 3 25
3 73 55 84 90 15 52 -2 103 -47 137 -37 28 -49 29 -302 20 -45 -2 -85 1 -88 5
-3 5 1 9 10 9 8 0 16 4 18 10 2 5 145 153 319 327 212 213 320 329 327 350 11
33 5 70 -17 111 -19 36 -81 61 -136 54z"/>
<path d="M6774 5222 c-46 -23 -63 -43 -74 -82 -20 -73 -13 -82 342 -437 l333
-333 -173 0 c-182 0 -207 -5 -244 -49 -45 -53 -27 -151 34 -189 27 -18 55 -19
376 -20 334 0 348 0 384 20 63 36 65 50 64 431 l-1 338 -33 40 c-18 21 -36 38
-40 37 -4 -1 -19 2 -34 6 -39 11 -94 -10 -124 -49 -28 -37 -30 -58 -21 -268 4
-117 4 -117 -16 -100 -11 10 -160 158 -331 329 -171 171 -321 316 -333 323
-35 18 -78 19 -109 3z"/>
<path d="M4755 5180 c-26 -10 -68 -56 -72 -78 -2 -9 -4 -226 -5 -480 l-1 -464
-116 115 c-140 138 -166 151 -237 121 -67 -28 -98 -121 -60 -179 15 -22 479
-494 488 -496 74 -11 90 -9 120 10 41 26 470 457 489 491 29 54 13 122 -39
159 -64 46 -124 33 -196 -43 -27 -28 -78 -82 -113 -119 -36 -38 -67 -66 -70
-63 -3 3 -6 216 -6 473 0 291 -4 475 -10 487 -33 64 -108 93 -172 66z"/>
<path d="M1067 4084 c-1 -1 -29 -5 -62 -9 -249 -28 -488 -142 -665 -316 -73
-72 -159 -184 -187 -241 -10 -21 -21 -38 -25 -38 -5 0 -8 -7 -8 -15 0 -9 -6
-26 -14 -38 -13 -20 -64 -160 -71 -197 -2 -8 -4 -15 -5 -15 -2 0 -6 -17 -16
-75 -10 -56 -11 -298 -2 -365 10 -68 44 -188 73 -255 13 -30 26 -62 29 -70 17
-39 77 -132 129 -198 86 -110 172 -188 287 -259 76 -47 170 -95 170 -86 0 3 6
1 13 -5 16 -14 178 -61 232 -68 145 -19 256 -18 380 2 82 13 237 62 247 78 4
6 8 7 8 3 0 -11 140 65 198 107 276 198 445 488 478 816 10 97 1 264 -18 335
-6 22 -12 53 -15 70 -7 42 -59 169 -100 245 -54 100 -119 185 -201 267 -113
111 -221 180 -407 258 -49 21 -131 42 -195 50 -19 3 -53 8 -75 11 -35 6 -174
11 -178 8z m176 -607 c112 -26 201 -78 285 -165 28 -30 52 -61 52 -68 0 -8 4
-14 8 -14 5 0 16 -19 26 -41 85 -192 67 -402 -48 -554 -35 -46 -103 -115 -115
-115 -4 0 -16 -8 -27 -18 -55 -51 -178 -87 -294 -86 -191 1 -339 81 -457 249
-11 17 -21 33 -22 37 -1 4 -10 27 -20 50 -53 125 -48 291 13 423 37 81 76 131
163 205 36 31 139 79 201 95 64 16 173 17 235 2z"/>
<path d="M8417 4084 c-1 -1 -31 -5 -67 -9 -64 -7 -75 -9 -135 -21 -127 -25
-299 -105 -423 -196 -96 -71 -272 -262 -272 -295 0 -7 -4 -13 -8 -13 -8 0 -45
-69 -85 -160 -38 -86 -71 -214 -82 -315 -2 -22 -4 -42 -5 -45 -7 -25 4 -230
14 -275 32 -143 56 -216 104 -310 32 -62 73 -131 95 -160 154 -203 368 -353
601 -420 121 -34 151 -38 306 -39 142 -1 201 5 291 30 30 8 61 16 69 19 8 2
29 9 45 16 17 7 32 13 35 13 3 1 32 14 65 30 125 60 272 175 376 296 89 104
196 313 225 443 12 50 15 65 21 102 9 56 9 289 -1 355 -39 261 -197 533 -406
701 -98 77 -268 171 -355 195 -96 26 -182 44 -230 49 -59 7 -175 12 -178 9z
m153 -606 c30 -5 73 -19 94 -29 22 -11 44 -19 50 -19 11 0 146 -101 146 -109
0 -4 14 -22 31 -41 71 -80 117 -220 113 -340 -2 -41 -4 -82 -7 -90 -2 -8 -7
-31 -11 -50 -10 -40 -55 -133 -83 -169 -75 -97 -200 -178 -316 -205 -137 -32
-344 9 -425 84 -12 11 -25 20 -30 20 -15 0 -105 107 -132 158 -98 179 -86 414
29 572 29 39 107 120 116 120 4 0 21 11 38 24 91 69 254 100 387 74z"/>
<path d="M4767 3584 c-1 -1 -31 -4 -67 -7 -191 -17 -382 -88 -543 -200 -90
-64 -220 -193 -271 -272 -22 -33 -48 -72 -58 -87 -10 -15 -18 -32 -18 -38 0
-5 -4 -10 -10 -10 -5 0 -10 -6 -10 -14 0 -7 -9 -33 -19 -57 -11 -24 -20 -48
-21 -54 -1 -5 -6 -16 -12 -22 -6 -7 -7 -13 -4 -13 4 0 2 -9 -4 -21 -7 -11 -14
-33 -16 -47 -3 -15 -9 -43 -14 -62 -30 -123 -30 -306 1 -460 6 -30 12 -59 13
-65 1 -5 4 -14 7 -20 3 -5 12 -30 19 -55 7 -25 17 -49 22 -54 4 -6 8 -18 8
-28 0 -10 5 -18 10 -18 6 0 10 -7 10 -15 0 -8 14 -38 31 -67 143 -243 353
-422 599 -507 36 -13 72 -26 80 -29 19 -7 18 -6 60 -15 19 -4 46 -10 60 -13
14 -3 88 -7 165 -9 164 -4 305 21 440 76 72 29 204 101 237 128 7 6 38 31 68
55 199 157 357 433 396 691 9 65 11 265 2 335 -37 288 -214 582 -458 759 -38
28 -70 48 -70 44 0 -5 -4 -3 -8 3 -18 29 -248 124 -335 140 -17 2 -33 7 -37 9
-11 7 -246 24 -253 19z m158 -608 c22 -7 42 -13 45 -14 3 0 18 -5 33 -11 16
-6 30 -11 33 -11 15 0 117 -74 154 -111 120 -121 171 -284 148 -469 -9 -65
-53 -172 -85 -208 -7 -7 -13 -17 -13 -21 0 -4 -18 -25 -40 -47 -107 -109 -250
-171 -387 -168 -84 1 -135 9 -164 25 -11 5 -19 7 -19 4 0 -15 -143 72 -187
113 -68 65 -134 168 -149 232 -2 11 -7 30 -10 43 -27 106 -7 260 49 370 33 65
155 197 182 197 8 0 15 4 15 8 0 12 84 49 150 66 67 17 190 18 245 2z"/>
</g>
</svg>
